<?xml version="1.0" encoding="utf-8"?>
<!-- Generator: Adobe Illustrator 16.0.0, SVG Export Plug-In . SVG Version: 6.00 Build 0)  -->
<!DOCTYPE svg PUBLIC "-//W3C//DTD SVG 1.1//EN" "http://www.w3.org/Graphics/SVG/1.1/DTD/svg11.dtd">
<svg version="1.1" id="Layer_1" xmlns="http://www.w3.org/2000/svg" xmlns:xlink="http://www.w3.org/1999/xlink" x="0px" y="0px"
	 width="55.156px" height="15.229px" viewBox="0 0 55.156 15.229" enable-background="new 0 0 55.156 15.229" xml:space="preserve">
<g>
	<path fill="#F9F9F9" d="M18.114,0.73v5.705L16.583,6.5V6.402c0.228-0.046,0.422-0.141,0.583-0.28
		c0.153-0.137,0.252-0.298,0.305-0.483c0.047-0.178,0.068-0.493,0.068-0.941V2.203c0-0.531-0.092-0.891-0.272-1.082
		c-0.176-0.192-0.402-0.312-0.684-0.358V0.666C16.876,0.693,17.388,0.716,18.114,0.73z M23.452,0.73v5.705
		C23.24,6.439,22.719,6.461,21.88,6.5V6.402c0.29-0.046,0.531-0.17,0.712-0.374c0.187-0.203,0.278-0.591,0.278-1.168V3.718h-3.636
		v1.315c0,0.508,0.093,0.85,0.283,1.026c0.197,0.179,0.436,0.292,0.708,0.342V6.5c-0.592-0.035-1.118-0.059-1.581-0.064V0.73
		c0.422,0,0.95-0.022,1.581-0.064v0.097c-0.376,0.082-0.634,0.229-0.78,0.451c-0.144,0.22-0.214,0.601-0.214,1.142v0.902h3.638
		V2.223c0-0.451-0.08-0.791-0.237-1.023c-0.166-0.226-0.421-0.373-0.759-0.438V0.666C22.393,0.708,22.916,0.73,23.452,0.73z
		 M23.983,6.435V0.73c0.51,0,1.033-0.022,1.555-0.064v0.097c-0.609,0.13-0.921,0.567-0.949,1.312l-0.018,0.514v2.446
		c0,0.81,0.322,1.266,0.967,1.368V6.5C24.634,6.458,24.111,6.435,23.983,6.435z"/>
	<path fill="#F9F9F9" d="M27.11,5.087v-2.51h0.538v2.7c0,0.397,0.054,0.681,0.153,0.85c0.102,0.176,0.267,0.302,0.505,0.378h-0.223
		c-0.319-0.107-0.563-0.257-0.729-0.453C27.19,5.861,27.11,5.538,27.11,5.087z M28.12,5.181V2.578h0.533v2.685
		c0,0.656,0.308,0.986,0.92,0.986c0.183,0,0.334-0.03,0.474-0.087v0.12c-0.234,0.151-0.502,0.227-0.807,0.227
		c-0.268,0-0.49-0.061-0.671-0.184c-0.193-0.126-0.318-0.267-0.362-0.416C28.142,5.752,28.12,5.511,28.12,5.181z"/>
	<path fill="#F9F9F9" d="M32.229,2.578h2.478l-3.609,3.857c-0.076,0.004-0.291,0.016-0.651,0.035l3.315-3.552h-1.75
		c-0.403,0-0.707,0.063-0.921,0.188c-0.204,0.13-0.349,0.368-0.417,0.711h-0.136c0-0.16,0.005-0.303,0.029-0.434
		c0.052-0.346,0.073-0.589,0.073-0.725c0-0.006-0.006-0.056-0.014-0.141C31.241,2.557,31.786,2.578,32.229,2.578z M34.272,6.435
		h-2.564l3.617-3.857c0.079-0.004,0.29-0.024,0.654-0.059l-3.306,3.557h1.334c0.509,0,0.874-0.072,1.116-0.212
		c0.228-0.143,0.39-0.383,0.489-0.723h0.141c0,0.136-0.023,0.352-0.076,0.649c-0.055,0.251-0.092,0.479-0.117,0.681
		c-0.345-0.004-0.712-0.012-1.095-0.028C34.425,6.436,34.363,6.435,34.272,6.435z"/>
	<path fill="#F9F9F9" d="M37.347,5.087v-2.51h0.535v2.7c0,0.397,0.053,0.681,0.158,0.85c0.102,0.176,0.268,0.302,0.503,0.378h-0.228
		c-0.32-0.107-0.561-0.257-0.727-0.453C37.428,5.861,37.347,5.538,37.347,5.087z M38.356,5.181V2.578h0.535v2.685
		c0,0.656,0.311,0.986,0.919,0.986c0.184,0,0.342-0.03,0.477-0.087v0.12c-0.238,0.151-0.506,0.227-0.806,0.227
		c-0.271,0-0.492-0.061-0.668-0.184c-0.197-0.126-0.319-0.267-0.373-0.416C38.385,5.752,38.356,5.511,38.356,5.181z"/>
	<path fill="#F9F9F9" d="M42.11,2.578v3.857c-0.707,0.006-1.178,0.03-1.429,0.064V6.402c0.393-0.105,0.642-0.232,0.745-0.382
		c0.113-0.159,0.173-0.442,0.173-0.852V3.771c0-0.386-0.064-0.661-0.202-0.827c-0.138-0.171-0.374-0.284-0.72-0.336V2.517
		C40.832,2.539,41.312,2.56,42.11,2.578z M42.628,6.435V2.578c0.16-0.004,0.349-0.024,0.571-0.059
		c-0.029,0.141-0.048,0.384-0.058,0.726C43.647,2.76,44,2.519,44.221,2.519c0.123,0,0.352,0.051,0.686,0.156
		c0.292,0.093,0.49,0.141,0.595,0.141c0.138,0,0.296-0.073,0.47-0.224c0.01-0.01,0.023-0.018,0.023-0.022
		c0.004-0.006,0.031-0.022,0.063-0.051l0.171,0.059c-0.238,0.387-0.535,0.583-0.896,0.583c-0.123,0-0.362-0.059-0.726-0.179
		c-0.146-0.05-0.262-0.076-0.334-0.076c-0.229,0-0.476,0.11-0.729,0.336c0.125-0.031,0.23-0.045,0.314-0.045
		c0.135,0,0.377,0.06,0.737,0.185c0.256,0.083,0.443,0.126,0.559,0.126c0.075,0,0.154-0.02,0.235-0.053
		c-0.235,0.226-0.464,0.338-0.681,0.338c-0.103,0-0.268-0.043-0.491-0.124c-0.331-0.124-0.562-0.185-0.69-0.185
		c-0.126,0-0.259,0.051-0.391,0.156v1.647c0,0.367,0.08,0.636,0.239,0.807c0.161,0.169,0.406,0.273,0.758,0.307V6.5
		C43.579,6.458,43.078,6.435,42.628,6.435z"/>
</g>
<g>
	<circle fill="#F9F9F9" cx="4.974" cy="5.752" r="0.436"/>
	<path fill="#47C8F5" d="M13.741,2.737c-0.564,0-1.04,0.381-1.184,0.896h-0.555c-0.184,0-0.333,0.149-0.333,0.333
		c0,0.183,0.149,0.332,0.333,0.332h0.555c0.144,0.518,0.619,0.897,1.184,0.897c0.68,0,1.23-0.553,1.23-1.232
		C14.972,3.287,14.421,2.737,13.741,2.737z"/>
	<path fill="#47C8F5" d="M13.758,5.597c-0.318,0-0.604,0.152-0.785,0.392c-0.096,0.109-0.433,0.473-0.875,0.606
		c-0.482,0.147-0.973-0.106-0.976-0.106c-0.209-0.112-0.469-0.037-0.584,0.174c-0.114,0.209-0.025,0.454,0.172,0.584
		c0.42,0.271,1.263,0.288,1.638,0.176c0.154-0.045,0.292-0.108,0.426-0.179v2.104c0,0.318,0.147,0.6,0.382,0.78v3.861
		c0,0.335,0.27,0.608,0.604,0.608c0.337,0,0.607-0.271,0.607-0.608v-3.861c0.231-0.18,0.382-0.462,0.382-0.78V6.585
		C14.746,6.041,14.304,5.597,13.758,5.597z"/>
	<path fill="#F9F9F9" d="M10.898,6.137c0.338,0,0.462,0.189,0.786,0.189c0.184,0,0.398-0.067,0.398-0.165V5.463
		c0-0.243-0.199-0.442-0.444-0.442h-1.27v0.576c0,0.041-0.035,0.075-0.075,0.075H9.931c-0.043,0-0.079-0.034-0.079-0.075V5.021
		h-1.27c-0.243,0-0.444,0.199-0.444,0.442v3.055c0,0.243,0.201,0.44,0.444,0.44h3.055c0.245,0,0.444-0.197,0.444-0.44V7.91
		c0-0.023-0.008-0.041-0.028-0.059c-0.015-0.014-0.037-0.018-0.061-0.016c-1.435,0.115-2.095-0.651-1.765-1.299
		C10.357,6.287,10.618,6.137,10.898,6.137z"/>
	<path fill="#47C8F5" d="M7.91,10.472H7.299V0.577c0-0.25-0.205-0.455-0.456-0.455H1.55c-0.25,0-0.454,0.204-0.454,0.455v9.896
		H0.483c-0.167,0-0.303,0.138-0.303,0.305v1.072c0,0.167,0.136,0.305,0.303,0.305H7.91c0.167,0,0.305-0.138,0.305-0.305v-1.072
		C8.215,10.61,8.079,10.472,7.91,10.472z M2.005,1.031h4.384v9.441H2.005V1.031z"/>
</g>
<g>
	<path fill="#F9F9F9" d="M18.114,8.692v5.706l-1.53,0.063v-0.097c0.228-0.05,0.422-0.145,0.583-0.283
		c0.153-0.137,0.252-0.297,0.305-0.48c0.047-0.181,0.068-0.495,0.068-0.94v-2.497c0-0.529-0.092-0.889-0.272-1.084
		c-0.176-0.189-0.402-0.309-0.684-0.357V8.627C16.876,8.656,17.388,8.677,18.114,8.692z M23.452,8.692v5.706
		c-0.213,0.004-0.733,0.024-1.572,0.063v-0.097c0.29-0.05,0.531-0.172,0.712-0.379c0.187-0.199,0.278-0.589,0.278-1.165V11.68
		h-3.636v1.315c0,0.509,0.093,0.851,0.283,1.028c0.197,0.175,0.436,0.291,0.708,0.341v0.097c-0.592-0.039-1.118-0.06-1.581-0.063
		V8.692c0.422,0,0.95-0.023,1.581-0.064v0.095c-0.376,0.08-0.634,0.229-0.78,0.448c-0.144,0.222-0.214,0.603-0.214,1.145v0.903
		h3.638v-1.035c0-0.45-0.08-0.791-0.237-1.021c-0.166-0.229-0.421-0.375-0.759-0.44V8.627C22.393,8.668,22.916,8.692,23.452,8.692z
		 M23.983,14.398V8.692c0.51,0,1.033-0.023,1.555-0.064v0.095c-0.609,0.129-0.921,0.567-0.949,1.312l-0.02,0.515v2.447
		c0,0.81,0.324,1.262,0.969,1.369v0.097C24.631,14.417,24.111,14.398,23.983,14.398z"/>
	<path fill="#F9F9F9" d="M27.435,12.419c-0.298,0.285-0.449,0.598-0.449,0.938c0,0.396,0.186,0.728,0.561,0.982
		c-0.294-0.05-0.55-0.161-0.771-0.33c-0.238-0.166-0.355-0.379-0.355-0.649C26.419,12.895,26.76,12.583,27.435,12.419z
		 M29.668,12.237v-0.575c0-0.259-0.072-0.461-0.211-0.611c-0.144-0.145-0.418-0.214-0.833-0.214c-0.638,0-1.178,0.183-1.618,0.547
		l-0.18-0.133c0.175-0.224,0.455-0.414,0.84-0.561c0.384-0.14,0.78-0.211,1.187-0.211c0.894,0,1.341,0.37,1.341,1.104v2.814
		c-0.214,0.004-0.4,0.027-0.551,0.063l0.025-0.287c-0.241,0.19-0.524,0.287-0.855,0.287c-0.378,0-0.692-0.11-0.944-0.332
		c-0.259-0.227-0.39-0.479-0.39-0.761c0-0.324,0.16-0.604,0.474-0.834c0.307-0.229,0.714-0.345,1.223-0.345
		C29.336,12.186,29.502,12.206,29.668,12.237z M29.668,13.947v-1.412c-0.16-0.014-0.295-0.021-0.404-0.021
		c-0.376,0-0.671,0.086-0.88,0.258c-0.209,0.179-0.316,0.381-0.316,0.61c0,0.206,0.088,0.382,0.269,0.526
		c0.179,0.15,0.399,0.225,0.659,0.225C29.222,14.132,29.447,14.069,29.668,13.947z M32.043,14.461l-1.375-0.063v-2.813
		c0-0.28-0.042-0.49-0.108-0.629c-0.08-0.134-0.224-0.253-0.424-0.349c0.42,0.061,0.699,0.171,0.849,0.337
		c0.146,0.166,0.217,0.463,0.217,0.891v1.673c0,0.285,0.054,0.487,0.16,0.609c0.103,0.127,0.325,0.206,0.682,0.246V14.461z"/>
	<path fill="#F9F9F9" d="M34.021,10.537v3.861c-0.55,0.004-0.998,0.027-1.348,0.063v-0.097c0.334-0.088,0.557-0.208,0.664-0.36
		c0.099-0.158,0.156-0.403,0.156-0.74v-1.622c0-0.324-0.063-0.571-0.184-0.737c-0.117-0.167-0.332-0.278-0.633-0.337v-0.091
		C32.743,10.487,33.193,10.509,34.021,10.537z M34.497,14.398v-3.861c0.253-0.021,0.444-0.042,0.572-0.058
		c-0.018,0.133-0.029,0.238-0.037,0.318c0.627-0.249,1.185-0.371,1.678-0.371c0.48,0,0.824,0.086,1.033,0.269
		c0.213,0.188,0.318,0.452,0.318,0.789v2.914c-0.361,0-0.817,0.02-1.37,0.063v-0.097c0.319-0.069,0.536-0.188,0.66-0.352
		c0.113-0.163,0.169-0.409,0.169-0.735v-1.719c0-0.274-0.063-0.474-0.185-0.599c-0.124-0.119-0.369-0.18-0.736-0.18
		c-0.411,0-0.937,0.117-1.567,0.349v2.176c0,0.308,0.063,0.541,0.18,0.699c0.12,0.16,0.353,0.28,0.691,0.36v0.097
		C35.476,14.417,35.007,14.398,34.497,14.398z M38.52,14.398v-2.983c0-0.44-0.143-0.732-0.429-0.878
		c0.365,0.015,0.63,0.131,0.792,0.341c0.615-0.302,1.234-0.456,1.861-0.456c0.3,0,0.567,0.053,0.798,0.158
		c0.23,0.103,0.374,0.229,0.437,0.372c0.061,0.143,0.095,0.366,0.095,0.673v2.773c-0.223,0.004-0.433,0.017-0.642,0.033
		c0.07-0.282,0.103-0.634,0.103-1.054v-1.611c0-0.3-0.017-0.502-0.054-0.606c-0.03-0.109-0.125-0.204-0.271-0.287
		c-0.15-0.079-0.336-0.119-0.565-0.119c-0.43,0-0.962,0.129-1.606,0.387c0.019,0.033,0.029,0.133,0.029,0.302v1.856
		c0,0.336,0.061,0.585,0.189,0.751c0.117,0.158,0.334,0.266,0.653,0.315v0.097C39.209,14.417,38.743,14.398,38.52,14.398z
		 M42.553,14.398v-2.806c0-0.305-0.032-0.523-0.095-0.653c-0.061-0.131-0.186-0.261-0.385-0.382c0.37,0.038,0.631,0.133,0.787,0.287
		c0.147,0.155,0.225,0.412,0.225,0.768v1.615c0,0.363,0.057,0.631,0.183,0.803c0.125,0.169,0.348,0.282,0.674,0.335v0.097
		C43.396,14.417,42.931,14.398,42.553,14.398z"/>
	<path fill="#F9F9F9" d="M45.627,12.419c-0.299,0.285-0.45,0.598-0.45,0.938c0,0.396,0.184,0.728,0.561,0.982
		c-0.293-0.05-0.551-0.161-0.776-0.33c-0.23-0.166-0.353-0.379-0.353-0.649C44.609,12.895,44.95,12.583,45.627,12.419z
		 M47.859,12.237v-0.575c0-0.259-0.07-0.461-0.208-0.611c-0.146-0.145-0.421-0.214-0.835-0.214c-0.636,0-1.177,0.183-1.617,0.547
		l-0.176-0.133c0.176-0.224,0.455-0.414,0.838-0.561c0.382-0.14,0.78-0.211,1.186-0.211c0.896,0,1.345,0.37,1.345,1.104v2.814
		c-0.221,0.004-0.404,0.027-0.556,0.063l0.025-0.287c-0.243,0.19-0.525,0.287-0.853,0.287c-0.377,0-0.691-0.11-0.949-0.332
		c-0.256-0.227-0.387-0.479-0.387-0.761c0-0.324,0.156-0.604,0.473-0.834c0.304-0.229,0.717-0.345,1.226-0.345
		C47.533,12.186,47.693,12.206,47.859,12.237z M47.859,13.947v-1.412c-0.161-0.014-0.293-0.021-0.402-0.021
		c-0.375,0-0.669,0.086-0.88,0.258c-0.213,0.179-0.321,0.381-0.321,0.61c0,0.206,0.091,0.382,0.271,0.526
		c0.178,0.15,0.398,0.225,0.655,0.225C47.412,14.132,47.642,14.069,47.859,13.947z M50.233,14.461l-1.377-0.063v-2.813
		c0-0.28-0.033-0.49-0.104-0.629c-0.08-0.134-0.221-0.253-0.422-0.349c0.414,0.061,0.699,0.171,0.843,0.337
		c0.152,0.166,0.224,0.463,0.224,0.891v1.673c0,0.285,0.052,0.487,0.159,0.609c0.099,0.127,0.328,0.206,0.681,0.246v0.099H50.233z"
		/>
	<path fill="#F9F9F9" d="M52.116,7.853v5.164c0,0.489,0.039,0.812,0.113,0.961c0.064,0.159,0.183,0.312,0.34,0.462
		c-0.264-0.054-0.464-0.149-0.61-0.275c-0.144-0.118-0.24-0.281-0.29-0.48c-0.05-0.183-0.076-0.504-0.076-0.968V9.092
		c0-0.329-0.02-0.551-0.05-0.669c-0.039-0.128-0.129-0.244-0.263-0.344c-0.132-0.104-0.306-0.166-0.518-0.194V7.792
		c0.147,0,0.374,0.011,0.679,0.034C51.595,7.833,51.819,7.845,52.116,7.853z M54.456,14.19l0.033,0.117
		c-0.225,0.13-0.473,0.198-0.751,0.198c-0.392,0-0.682-0.11-0.867-0.341c-0.181-0.224-0.279-0.602-0.279-1.14V7.853
		c0.287-0.008,0.49-0.015,0.611-0.027c-0.052,0.617-0.076,1.059-0.076,1.33v3.628c0,0.443,0.017,0.746,0.045,0.91
		c0.026,0.164,0.115,0.297,0.266,0.397c0.143,0.109,0.345,0.165,0.602,0.165C54.167,14.256,54.311,14.236,54.456,14.19z"/>
</g>
<path fill="#F9F9F9" d="M7.271,12.514c0,0.143-0.081,0.257-0.18,0.257H1.304c-0.1,0-0.18-0.114-0.18-0.257l0,0
	c0-0.145,0.081-0.259,0.18-0.259h5.787C7.191,12.255,7.271,12.37,7.271,12.514L7.271,12.514z"/>
<path fill="#F9F9F9" d="M6.807,13.202c0,0.143-0.071,0.257-0.159,0.257H1.559c-0.088,0-0.159-0.114-0.159-0.257l0,0
	c0-0.145,0.071-0.259,0.159-0.259h5.089C6.736,12.943,6.807,13.057,6.807,13.202L6.807,13.202z"/>
<path fill="#F9F9F9" d="M6.385,13.874c0,0.143-0.06,0.257-0.134,0.257H1.956c-0.074,0-0.134-0.114-0.134-0.257l0,0
	c0-0.145,0.06-0.259,0.134-0.259h4.295C6.325,13.615,6.385,13.729,6.385,13.874L6.385,13.874z"/>
</svg>
