<?xml version="1.0" encoding="utf-8"?>
<!-- Generator: Adobe Illustrator 16.0.0, SVG Export Plug-In . SVG Version: 6.00 Build 0)  -->
<!DOCTYPE svg PUBLIC "-//W3C//DTD SVG 1.1//EN" "http://www.w3.org/Graphics/SVG/1.1/DTD/svg11.dtd">
<svg version="1.1" id="Layer_1" xmlns="http://www.w3.org/2000/svg" xmlns:xlink="http://www.w3.org/1999/xlink" x="0px" y="0px"
	 width="156.667px" height="150px" viewBox="47.833 0 156.667 150" enable-background="new 47.833 0 156.667 150"
	 xml:space="preserve">
<path fill="#34CCFF" d="M167.609,146.189c8.021,0,22.947-13.632,28.285-28.952l0.535-1.534l-0.755-1.44
	c-0.465-0.888-1.218-1.853-2.232-2.865c-5.357-5.357-17.765-11.715-32.392-16.59c-0.791-0.263-1.508-0.423-2.131-0.482l-2.005-0.185
	l-1.263,1.566c-1.098,1.363-1.935,3.631-3.185,7.604c-2.17,6.892-4.69,13.077-11.587,13.077c-2.885,0-11.92-2.323-33.436-23.837
	C85.933,71.035,83.608,62.002,83.608,59.115c0-6.897,6.188-9.417,13.078-11.587c3.882-1.22,6.243-2.09,7.605-3.185l1.567-1.262
	l-0.185-2.005c-0.057-0.63-0.22-1.35-0.485-2.137C100.316,24.32,93.961,11.91,88.601,6.553c-1.01-1.012-1.973-1.762-2.855-2.228
	l-1.442-0.762l-1.542,0.538c-15.318,5.342-28.95,20.27-28.95,28.29c0,19.175,4.123,45.315,36.305,77.495
	C122.295,142.063,148.436,146.189,167.609,146.189z"/>
<g>
	<path fill="#FFFFFF" d="M167.609,150c10.693,0,26.73-16.037,32.076-32.077c1.012-3.038-0.5-6.175-3.548-9.223
		c-7.125-7.125-22.643-13.763-33.872-17.507c-16.038-5.346-10.693,21.385-21.385,21.385c-5.346,0-18.71-10.693-30.741-22.721
		c-12.027-12.029-22.72-25.395-22.72-30.74c0-10.692,26.729-5.348,21.385-21.385C105.06,26.5,98.425,10.988,91.298,3.863
		c-3.048-3.047-6.183-4.563-9.223-3.55C66.038,5.66,50,21.698,50,32.39c0,21.383,5.345,48.113,37.422,80.19
		C119.498,144.652,146.228,150,167.609,150z M83.998,7.646c0.328,0.172,0.982,0.592,1.955,1.562
		c4.897,4.898,11.052,17.033,15.68,30.92c0.212,0.64,0.285,1.06,0.308,1.298c-1.065,0.854-4.357,1.893-6.377,2.53
		C89.69,45.805,79.86,48.902,79.86,59.12c0,9.215,13.56,24.71,24.935,36.085c11.375,11.375,26.869,24.935,36.084,24.935
		c10.221,0,13.316-9.829,15.166-15.702c0.637-2.022,1.672-5.313,2.529-6.378c0.238,0.022,0.658,0.095,1.298,0.308
		c13.885,4.631,26.022,10.785,30.917,15.68c0.973,0.971,1.391,1.625,1.563,1.955c-4.925,14.135-18.805,26.438-24.742,26.438
		c-18.455,0-43.637-4.002-74.845-35.207C61.563,76.027,57.56,50.843,57.56,32.388C57.56,26.453,69.863,12.57,83.998,7.646z"/>
	<path fill="#FFFFFF" d="M125,30v7.5c20.71,0,37.5,16.79,37.5,37.5h7.5C170,50.188,149.813,30,125,30z"/>
	<path fill="#FFFFFF" d="M185,75c0-33.085-26.915-60-60-60v7.5c28.995,0,52.5,23.505,52.5,52.5H185z"/>
	<path fill="#FFFFFF" d="M125,0v7.5c37.279,0,67.5,30.22,67.5,67.5h7.5C200,33.645,166.355,0,125,0z"/>
</g>
</svg>
